<?xml version="1.0" encoding="iso-8859-1"?>
<!-- Generator: Adobe Illustrator 19.0.0, SVG Export Plug-In . SVG Version: 6.00 Build 0)  -->
<svg version="1.1" id="Layer_1" xmlns="http://www.w3.org/2000/svg" xmlns:xlink="http://www.w3.org/1999/xlink" x="0px" y="0px"
	 viewBox="0 0 512 512" style="fill:rgb(18,100,100); enable-background:new 0 0 512 512;" xml:space="preserve">
<g>
	<g>
		<path d="M325.919,118.552c-0.845-4.505-5.179-7.47-9.687-6.626L52.326,161.472c0.428-5.416,2.265-10.651,5.416-15.257
			c4.756-6.951,11.935-11.636,20.213-13.191l68.51-12.863c4.504-0.845,7.471-5.183,6.625-9.687
			c-0.845-4.504-5.185-7.472-9.687-6.625l-68.511,12.863c-26.085,4.9-43.323,30.103-38.425,56.182
			c0.749,3.988,4.232,6.768,8.147,6.768c0.507,0,1.023-0.047,1.54-0.144l273.141-51.278
			C323.799,127.394,326.765,123.057,325.919,118.552z"/>
	</g>
</g>
<g>
	<g>
		<path d="M487.935,226.286h-35.267v-31.533c0-4.583-3.716-8.299-8.299-8.299H67.631c-4.583,0-8.299,3.716-8.299,8.299v31.533
			H24.066C10.796,226.286,0,237.081,0,250.351c0,13.27,10.796,24.065,24.066,24.065h35.267v122.813c0,4.583,3.716,8.299,8.299,8.299
			s8.299-3.716,8.299-8.299V203.052h360.141v242.644c0,24.523-19.95,44.473-44.473,44.473H120.402
			c-24.523,0-44.473-19.95-44.473-44.473v-20.805c0-4.583-3.716-8.299-8.299-8.299s-8.299,3.716-8.299,8.299v20.805
			c0,33.675,27.395,61.07,61.07,61.07h271.195c33.675,0,61.07-27.395,61.07-61.07v-171.28h35.267
			c13.27,0,24.066-10.795,24.066-24.065C512,237.081,501.204,226.286,487.935,226.286z M59.333,257.818H24.066
			c-4.118,0-7.469-3.35-7.469-7.468c0-4.118,3.35-7.469,7.469-7.469h35.267V257.818z M487.935,257.818h-35.267v-14.935h35.267
			c4.118,0,7.469,3.35,7.469,7.469C495.403,254.468,492.052,257.818,487.935,257.818z"/>
	</g>
</g>
<g>
	<g>
		<path d="M480.931,46.28c-1.954-4.146-6.899-5.922-11.045-3.968c-4.146,1.954-5.922,6.899-3.968,11.045
			c2.978,6.316,4.552,13.523,4.552,20.843c0,28.379-33.867,58.943-68.622,77.602C354.492,126.54,333.24,94.847,333.24,74.2
			c0-23.165,15.445-42.011,34.431-42.011c14.273,0,25.885,14.332,25.885,31.95c0,4.583,3.716,8.299,8.299,8.299
			c4.583,0,8.299-3.716,8.299-8.299c0-17.616,11.612-31.95,25.886-31.95c5.63,0,10.998,1.617,15.959,4.804
			c3.854,2.477,8.989,1.362,11.468-2.494c2.479-3.855,1.361-8.99-2.494-11.469c-7.573-4.867-16.194-7.44-24.933-7.44
			c-14,0-26.44,7.779-34.185,19.753c-7.744-11.974-20.183-19.753-34.184-19.753c-27.294,0-49.649,24.74-50.965,55.72L270.425,80
			l-3.423-18.235c13.442-4.579,21.859-18.487,19.164-32.843c-2.954-15.74-18.162-26.141-33.905-23.187l-46.895,8.803
			c-15.74,2.955-26.141,18.164-23.187,33.905c2.617,13.937,14.84,23.69,28.534,23.689c0.41,0,0.823-0.011,1.237-0.029l3.423,18.234
			l-41.052,7.708c-4.504,0.845-7.471,5.183-6.625,9.687c0.749,3.986,4.233,6.767,8.148,6.767c0.508,0,1.023-0.046,1.54-0.144
			l141.023-26.477c8.535,33.573,46.547,63.744,79.668,80.677c1.186,0.606,2.482,0.91,3.778,0.91s2.591-0.303,3.778-0.91
			c37.566-19.205,81.435-55.44,81.435-94.355C487.067,64.45,484.945,54.795,480.931,46.28z M231.688,87.272l-3.369-17.939
			l22.427-4.21l3.368,17.939L231.688,87.272z M259.918,46.514l-46.895,8.803c-6.742,1.266-13.264-3.191-14.53-9.936
			s3.192-13.263,9.937-14.53l46.895-8.803c6.738-1.266,13.263,3.191,14.53,9.936C271.121,38.729,266.663,45.247,259.918,46.514z"/>
	</g>
</g>
<g>
</g>
<g>
</g>
<g>
</g>
<g>
</g>
<g>
</g>
<g>
</g>
<g>
</g>
<g>
</g>
<g>
</g>
<g>
</g>
<g>
</g>
<g>
</g>
<g>
</g>
<g>
</g>
<g>
</g>
</svg>
