<?xml version="1.0" encoding="iso-8859-1"?>
<!-- Generator: Adobe Illustrator 19.0.0, SVG Export Plug-In . SVG Version: 6.00 Build 0)  -->
<svg version="1.1" id="Layer_1" xmlns="http://www.w3.org/2000/svg" xmlns:xlink="http://www.w3.org/1999/xlink" x="0px" y="0px"
	 viewBox="0 0 512 512" style="fill:rgb(18,100,100); enable-background:new 0 0 512 512;" xml:space="preserve">
<g>
	<g>
		<g>
			<path d="M366.933,162.133h-25.6v-25.6c0-14.134-11.466-25.6-25.6-25.6h-17.067V25.6c0-14.134-11.466-25.6-25.6-25.6h-34.133
				c-14.134,0-25.6,11.466-25.6,25.6v85.333h-17.067c-14.134,0-25.6,11.466-25.6,25.6v25.6h-25.6c-14.134,0-25.6,11.466-25.6,25.6
				V256v153.6v76.8c0,14.134,11.466,25.6,25.6,25.6h110.933c0.001,0,0.001,0,0.002,0h110.933c14.134,0,25.6-11.466,25.6-25.6v-76.8
				V256v-68.267C392.533,173.6,381.067,162.133,366.933,162.133z M136.533,260.567L256,180.922l119.467,79.644v144.709L256,492.885
				l-119.467-87.609V260.567z M375.467,187.733v52.322L284.184,179.2H332.8h34.133C371.641,179.2,375.467,183.025,375.467,187.733z
				 M230.4,25.6c0-4.708,3.825-8.533,8.533-8.533h34.133c4.708,0,8.533,3.825,8.533,8.533v85.333h-51.2V25.6z M187.733,136.533
				c0-4.708,3.825-8.533,8.533-8.533h25.6h68.267h25.6c4.708,0,8.533,3.825,8.533,8.533v25.6H187.733V136.533z M145.067,179.2H179.2
				h48.616l-91.283,60.855v-52.322C136.533,183.025,140.359,179.2,145.067,179.2z M136.533,486.4v-59.96l93.4,68.494h-84.867
				C140.359,494.933,136.533,491.108,136.533,486.4z M366.933,494.933h-84.867l93.4-68.494v59.96
				C375.467,491.108,371.641,494.933,366.933,494.933z"/>
			<path d="M256,34.133c-4.71,0-8.533,3.814-8.533,8.533S251.29,51.2,256,51.2c4.71,0,8.533-3.814,8.533-8.533
				S260.71,34.133,256,34.133z"/>
			<path d="M221.867,315.733h68.267c4.713,0,8.533-3.82,8.533-8.533s-3.82-8.533-8.533-8.533h-68.267
				c-4.713,0-8.533,3.82-8.533,8.533S217.154,315.733,221.867,315.733z"/>
			<path d="M324.267,349.867c0-4.713-3.82-8.533-8.533-8.533H196.267c-4.713,0-8.533,3.82-8.533,8.533s3.82,8.533,8.533,8.533
				h119.467C320.446,358.4,324.267,354.58,324.267,349.867z"/>
		</g>
	</g>
</g>
<g>
</g>
<g>
</g>
<g>
</g>
<g>
</g>
<g>
</g>
<g>
</g>
<g>
</g>
<g>
</g>
<g>
</g>
<g>
</g>
<g>
</g>
<g>
</g>
<g>
</g>
<g>
</g>
<g>
</g>
</svg>
